MoBL_ARMS_shoulder_elvation_states	
version=1	
nRows=331	
nColumns=2	
inDegrees=yes	
	
# SIMM Motion File Header:	
name MoBL_ARMS_shoulder_elvation_states	
datacolumns 2	
datarows 331	
otherdata 1	
range 1.250359198 1.974693577	
endheader	
time	shoulder_elv
1.250359198	26.55831179
1.252416788	26.60233892
1.254474378	26.64504211
1.257085584	26.69733279
1.259139992	26.73697082
1.261194399	26.77529052
1.263248807	26.81228531
1.265869149	26.85755271
1.267920143	26.8914773
1.269971136	26.92408353
1.27202213	26.95536506
1.274651722	26.99353781
1.276700099	27.02176171
1.278748476	27.04866709
1.280796853	27.07424784
1.2834338	27.10523337
1.285479974	27.12776212
1.287526147	27.14897252
1.289572321	27.16885873
1.29221557	27.19259263
1.294260011	27.20943243
1.296304451	27.22495435
1.298348891	27.23915274
1.300997368	27.25558363
1.303040458	27.26673986
1.305083547	27.27657903
1.307126637	27.28509572
1.309779552	27.29418671
1.311821633	27.29966493
1.313863713	27.30382735
1.315905793	27.30666876
1.318562558	27.30839416
1.320603883	27.30820057
1.322645208	27.30669293
1.324686533	27.30386626
1.327346943	27.29820885
1.329387788	27.29235058
1.331428633	27.28518048
1.333469477	27.27669375
1.3361332	27.26364271
1.338173777	27.25212821
1.340214354	27.23930466
1.342254931	27.22516747
1.344921971	27.20471661
1.346962446	27.18755624
1.349002922	27.16909024
1.351043397	27.14931426
1.353713944	27.12145976
1.355754461	27.09866603
1.357794978	27.07457077
1.359835496	27.04916984
1.362509869	27.01390901
1.364550549	26.98549678
1.366591229	26.95578785
1.368631909	26.92477826
1.371310546	26.88210823
1.373351494	26.84809489
1.375392442	26.81279038
1.377433389	26.77619097
1.38011682	26.72610795
1.382158131	26.68651345
1.384199441	26.64563407
1.386240752	26.6034663
1.388929582	26.54596493
1.390971344	26.50081184
1.393013105	26.45438093
1.395054867	26.40666891
1.397749763	26.34174195
1.399792061	26.29105545
1.401834358	26.239099
1.403876656	26.18586948
1.406578333	26.11350758
1.408621252	26.05731548
1.410664171	25.99986206
1.41270709	25.94114444
1.415416296	25.86133613
1.417459925	25.79966881
1.419503554	25.73674959
1.421547183	25.67257583
1.424264695	25.58530765
1.426309127	25.51819797
1.428353559	25.44984665
1.430397991	25.38025127
1.433124602	25.28550797
1.435169938	25.2129913
1.437215274	25.13924405
1.43926061	25.06426404
1.441997124	24.96202891
1.444043473	24.88414303
1.446089823	24.80503847
1.448547693	24.70841246
1.450735316	24.62093953
1.452922939	24.53207844
1.455110561	24.44184077
1.457298184	24.35022328
1.459485806	24.25723735
1.461673429	24.16288025
1.463861052	24.06716309
1.466048674	23.97008368
1.468236297	23.87165285
1.470423919	23.77186897
1.472611542	23.67074257
1.474799165	23.5682726
1.476986787	23.46446926
1.47917441	23.35933213
1.481362033	23.25287105
1.483549655	23.14508623
1.485737278	23.03598716
1.488366706	22.90311654
1.490297077	22.80437361
1.492227447	22.70461507
1.494850065	22.56746848
1.497472682	22.42846492
1.499272434	22.33201166
1.501072185	22.2346902
1.503921767	22.07883893
1.506337517	21.94502982
1.508753266	21.80968791
1.510771583	21.69543536
1.5127899	21.58012398
1.515271949	21.43686618
1.517753998	21.2920214
1.519724493	21.17589823
1.521694987	21.05878625
1.524271003	20.90419522
1.526847018	20.74793043
1.528750064	20.63141313
1.530653109	20.51399395
1.533369254	20.34484434
1.53565214	20.20126835
1.537935025	20.05640947
1.540217911	19.91028251
1.542500796	19.76288757
1.544783682	19.61424171
1.547066567	19.46434297
1.549349453	19.31321114
1.551403058	19.17620082
1.553456663	19.03820501
1.555510268	18.89922358
1.558357507	18.70491915
1.560505865	18.55707257
1.562654222	18.40817767
1.56480258	18.25823576
1.56748428	18.06961941
1.569603384	17.91943664
1.571722488	17.76826618
1.573841593	17.61610938
1.576610655	17.41581728
1.578741666	17.26054941
1.580872676	17.10431693
1.583003686	16.94712174
1.585779383	16.74094802
1.587909763	16.58161998
1.590040142	16.42136428
1.592170521	16.26018325
1.594978822	16.04631988
1.59711329	15.88271805
1.599247759	15.71822371
1.601382227	15.55283974
1.604213755	15.33209617
1.606351465	15.16442853
1.608489176	14.99590696
1.610626886	14.8265349
1.613483568	14.59889507
1.615625382	14.42724994
1.617767196	14.25479169
1.620338786	14.04665979
1.622639407	13.85949263
1.624940027	13.67141829
1.627240647	13.48246032
1.629541267	13.29262276
1.631841888	13.10192953
1.634142508	12.91038525
1.636443128	12.71801405
1.638743748	12.52482125
1.641044369	12.33083114
1.643344989	12.13604986
1.645645609	11.94050163
1.647946229	11.7441942
1.65024685	11.54715631
1.65254747	11.34940016
1.65484809	11.15095001
1.65714871	10.95181595
1.659449331	10.75202132
1.661749951	10.5515777
1.664562394	10.30569348
1.66671392	10.11697281
1.668865445	9.927740992
1.67153411	9.692328659
1.673845684	9.487821245
1.676157258	9.282773112
1.678468832	9.077213632
1.680780406	8.871154214
1.68309198	8.664623621
1.685403555	8.457635146
1.687715129	8.250216461
1.690521297	7.997862074
1.692640205	7.806939351
1.694759112	7.615705585
1.697483473	7.369410405
1.699890533	7.151429495
1.702297593	6.933136945
1.704704654	6.714548473
1.707111714	6.495702922
1.709518775	6.276615737
1.711925835	6.057327669
1.714332895	5.837854165
1.716739956	5.618237842
1.719147016	5.398494106
1.721554077	5.178667446
1.723961137	4.958771638
1.726088685	4.764392415
1.728216232	4.570006554
1.730813594	4.332729121
1.733410956	4.09551871
1.736008318	3.858424692
1.738262577	3.652765514
1.740516837	3.447253938
1.742771097	3.241909314
1.745787584	2.967450735
1.747988786	2.767435533
1.750189987	2.567674302
1.753122907	2.30194486
1.755392407	2.096707154
1.757661907	1.891838128
1.759931407	1.68736692
1.762804081	1.429174941
1.76525338	1.209629198
1.76770268	0.990673574
1.769744739	0.808604548
1.771786799	0.626992931
1.774307309	0.403507696
1.776827819	0.18080514
1.77889362	-0.001093724
1.780959421	-0.182412053
1.783702501	-0.422220256
1.785757867	-0.601165171
1.787813233	-0.779438995
1.789868599	-0.9570217
1.7924905	-1.182498872
1.7951124	-1.406750096
1.797126654	-1.578154585
1.799140907	-1.748779318
1.801781692	-1.971240484
1.803790228	-2.139475394
1.805798765	-2.306840562
1.807807301	-2.473316566
1.810230173	-2.672905507
1.812653045	-2.871114885
1.814554668	-3.025676303
1.816456291	-3.179339039
1.819064383	-3.388573614
1.820915702	-3.536008708
1.822767021	-3.682511111
1.82504138	-3.861189356
1.827315738	-4.038387153
1.829590096	-4.214075232
1.831864455	-4.388203316
1.834138813	-4.560741243
1.836643989	-4.748893544
1.838539686	-4.889919807
1.840435384	-5.029755493
1.842331081	-5.168381302
1.844658027	-5.336847257
1.846456652	-5.465763806
1.848255278	-5.59351896
1.850053903	-5.720098012
1.852556223	-5.89420037
1.854506008	-6.028220979
1.856455792	-6.160773457
1.858405576	-6.291838447
1.860355361	-6.421386126
1.862305145	-6.549396955
1.864254929	-6.675840632
1.866204713	-6.800697961
1.868154498	-6.923939193
1.870104282	-7.045545067
1.872054066	-7.165486634
1.874003851	-7.283744054
1.876098355	-7.408870582
1.877963766	-7.518629434
1.879829177	-7.626776031
1.881694589	-7.73329613
1.88356	-7.838164224
1.885425411	-7.941364853
1.887732147	-8.066639829
1.889572847	-8.164730348
1.891413547	-8.261131036
1.893254247	-8.35582845
1.895562817	-8.472155199
1.897386769	-8.562124531
1.899210721	-8.650359833
1.901034673	-8.736849154
1.903333092	-8.843319528
1.905129239	-8.924553134
1.906925385	-9.004037927
1.908721531	-9.081762786
1.911264845	-9.188775811
1.912827264	-9.252732648
1.914389683	-9.315320511
1.916582754	-9.400846582
1.918772564	-9.483509761
1.920962374	-9.563420632
1.922765315	-9.627126419
1.924568256	-9.688940201
1.926371197	-9.748843622
1.928174139	-9.806829238
1.930451996	-9.877323657
1.932453237	-9.936698884
1.934454477	-9.993659512
1.936455717	-10.04819839
1.938246783	-10.09493862
1.940037849	-10.13972005
1.941828914	-10.18252805
1.94397926	-10.23130985
1.945898905	-10.27243255
1.947818549	-10.31126447
1.949738194	-10.3477901
1.951657839	-10.38200756
1.953577484	-10.41390203
1.955497129	-10.44347369
1.957416773	-10.47070941
1.959336418	-10.49560903
1.961256063	-10.51816121
1.963175708	-10.53836656
1.965095353	-10.55621549
1.967014997	-10.57170889
1.968934642	-10.58483888
1.970854287	-10.59560829
1.972773932	-10.60400889
1.974693577	-10.61004533
